# xmcd CD database file generated by LOLA_Freedb v0.9beta0
# 
# Track frame offsets:
#      150
#      10337
#      21713
#      31573
#      42105
#      51819
#      63566
#      74602
#      85510
#      97091
#      109789
#      118091
#      129523
#      140428
#      149851
#      159860
#      171954
#      184026
#      193619
#      206140
#      219402
#      231763
#      244903
#      256691
#      265856
#      279175
# 
# Disc length: 3857 seconds
# 
# Revision: 0 
# Processed by: cddbd v1.5.2PL0 Copyright (c) Steve Scherf et al.
# Submitted via: LOLA_Freedb v0.9beta0
# 
DISCID=7d0f0f1a
DTITLE=Eddy Arnold - The Greatest of Eddy Arnold
DYEAR=1973
DGENRE=
TTITLE0=Eddy Arnold - Bouquet Of Roses
TTITLE1=Eddy Arnold - Make The World Go Away
TTITLE2=Eddy Arnold - Here Comes Heaven
TTITLE3=Eddy Arnold - Somebody Like Me
TTITLE4=Eddy Arnold - Anytime
TTITLE5=Eddy Arnold - Lonely Again
TTITLE6=Eddy Arnold - But For Love
TTITLE7=Eddy Arnold - Turn The World Around
TTITLE8=Eddy Arnold - Cattle Call
TTITLE9=Eddy Arnold - The Tip Of My Fingers
TTITLE10=Eddy Arnold - Here Comes My Baby
TTITLE11=Eddy Arnold - I Want To Go With You
TTITLE12=Eddy Arnold - I'll Hold You In My Heart
TTITLE13=Eddy Arnold - What's He Doing In My World
TTITLE14=Eddy Arnold - Lay Some Happiness On Me
TTITLE15=Eddy Arnold - I'm Letting You Go
TTITLE16=Eddy Arnold - Just A Little Lovin'
TTITLE17=Eddy Arnold - The Last Word In Lonesome Is Me
TTITLE18=Eddy Arnold - Release Me (And Let Me Love Again)
TTITLE19=Eddy Arnold - Then You Can Tell Me Goodbye
TTITLE20=Eddy Arnold - I Really Don't Want To Know
TTITLE21=Eddy Arnold - They Don't Make Love Like They Used To
TTITLE22=Eddy Arnold - It's Such A Pretty World Today
TTITLE23=Eddy Arnold - Misty Blue
TTITLE24=Eddy Arnold - The Streets Of Laredo
TTITLE25=Eddy Arnold - You Don't Know Me
EXTD=
EXTT0=
EXTT1=
EXTT2=
EXTT3=
EXTT4=
EXTT5=
EXTT6=
EXTT7=
EXTT8=
EXTT9=
EXTT10=
EXTT11=
EXTT12=
EXTT13=
EXTT14=
EXTT15=
EXTT16=
EXTT17=
EXTT18=
EXTT19=
EXTT20=
EXTT21=
EXTT22=
EXTT23=
EXTT24=
EXTT25=
PLAYORDER=
